<svg xmlns="http://www.w3.org/2000/svg" width="1024" height="1024" viewBox="0 0 1024 1024">
  <rect width="1024" height="1024" fill="#0D1117"/>
  <g transform="translate(784,347)">
    <path d="M0 0 C1.58882168 1.23320094 3.12413896 2.53613666 4.625 3.875 C11.20013662 8.53677997 17.01667078 8.67191115 24.9375 8.9375 C42.86223402 9.61046327 59.16405696 15.64205846 71.875 28.6875 C72.70644531 29.52861328 72.70644531 29.52861328 73.5546875 30.38671875 C76.62125495 33.80967107 77.19345266 36.04800037 77.5625 40.5 C78.75035298 48.21176427 82.8620518 52.40217372 88 58 C89.71529946 60.04110333 91.38641271 62.11360719 93.0625 64.1875 C93.81660156 65.10917969 94.57070313 66.03085937 95.34765625 66.98046875 C96.16556641 67.98013672 96.16556641 67.98013672 97 69 C95.25253147 74.13838961 92.34635218 78.54288784 89.5 83.125 C89.00113281 83.93582031 88.50226562 84.74664062 87.98828125 85.58203125 C81.97231194 95.3398367 81.97231194 95.3398367 75.375 98.25 C74.18648437 98.79140625 72.99796875 99.3328125 71.7734375 99.890625 C64.40250787 102.05764779 58.57231481 99.65002461 51.75 96.9375 C41.21458369 93.01478736 32.4604541 93.49060218 21.46484375 95.46484375 C18 96 18 96 14.25390625 96.19140625 C2.9027052 96.90015319 -4.39424401 101.17958508 -13.70898438 107.47558594 C-16.70732851 109.47064783 -19.77500691 111.33599988 -22.85864258 113.19555664 C-25.11171072 114.55448463 -27.35114592 115.93396303 -29.58984375 117.31640625 C-32.51041391 119.11114476 -35.45788649 120.83951647 -38.44140625 122.52734375 C-39.51334229 123.15177368 -39.51334229 123.15177368 -40.60693359 123.78881836 C-41.93004512 124.55905496 -43.26418202 125.31087565 -44.61181641 126.03735352 C-50.68118498 129.63010358 -53.46802756 135.06375902 -57 141 C-58.30013972 142.99897916 -59.61286482 144.98982428 -60.9375 146.97265625 C-61.60523438 147.97490234 -62.27296875 148.97714844 -62.9609375 150.00976562 C-63.63382813 151.01716797 -64.30671875 152.02457031 -65 153.0625 C-65.67289063 154.07376953 -66.34578125 155.08503906 -67.0390625 156.12695312 C-68.37992821 158.13695743 -69.73724449 160.13609149 -71.11132812 162.12353516 C-73.02947298 164.91765009 -73.02947298 164.91765009 -74.37304688 167.77880859 C-77.39100957 173.40138611 -80.50855964 175.5778409 -86.46191406 177.41639709 C-90.77969191 178.58307072 -95.12945265 179.55411754 -99.5 180.5 C-101.28861165 180.91562446 -103.07638656 181.33486724 -104.86328125 181.7578125 C-108.14968655 182.53245972 -111.43974 183.28368679 -114.73632812 184.01367188 C-117.48235223 184.62802722 -120.17899345 185.32012406 -122.87695312 186.11914062 C-125.77340924 186.93608979 -128.01584809 187.18085769 -131 187 C-135.06541571 180.5938904 -135.06541571 180.5938904 -134.77822876 177.98660278 C-134 176 -134 176 -132.40829468 175.00094604 C-131.72103302 174.7671524 -131.03377136 174.53335876 -130.32568359 174.29248047 C-129.54752289 174.01894745 -128.76936218 173.74541443 -127.96762085 173.46359253 C-126.69587509 173.04462204 -126.69587509 173.04462204 -125.3984375 172.6171875 C-124.0936998 172.16667526 -124.0936998 172.16667526 -122.76260376 171.70706177 C-119.97170662 170.74772113 -117.17366332 169.81141113 -114.375 168.875 C-112.51122168 168.23712761 -110.64793343 167.59782136 -108.78515625 166.95703125 C-105.34317699 165.77903978 -101.89997689 164.60514825 -98.45068359 163.44873047 C-97.69658707 163.19510742 -96.94249054 162.94148437 -96.1655426 162.68017578 C-94.1259481 162.03955907 -92.08732455 161.53495017 -90.0090332 161.03857422 C-86.98026596 160.33134007 -86.98026596 160.33134007 -85.88208008 158.33691406 C-85.74181396 157.65338867 -85.60154785 156.96986328 -85.45703125 156.265625 C-83.66061327 149.429674 -80.60332298 143.16332332 -77.6875 136.75 C-76.84546 134.88404131 -76.00458399 133.01756562 -75.16456604 131.1506958 C-74.60421262 129.91454637 -74.03790245 128.68107995 -73.46568298 127.45037842 C-72.08867008 124.48141896 -70.82689746 121.52803805 -69.69946289 118.45410156 C-66.03642615 108.96204664 -61.05564914 105.6077971 -52.0625 101.25 C-50.84576028 100.62516233 -49.63116212 99.9961375 -48.41870117 99.36303711 C-46.04038319 98.12371969 -43.65585422 96.90191634 -41.26367188 95.68896484 C-37.0032772 93.48419148 -32.89622277 91.07603522 -28.8125 88.5625 C-28.20220947 88.19092773 -27.59191895 87.81935547 -26.96313477 87.43652344 C-25.63931646 86.62887737 -24.31910287 85.81532489 -23 85 C-32.23239483 87.57715348 -32.23239483 87.57715348 -41.38671875 90.4140625 C-42.10408203 90.64649658 -42.82144531 90.87893066 -43.56054688 91.1184082 C-44.96146036 91.5755704 -46.36000067 92.0400802 -47.75585938 92.51245117 C-52.66881324 94.11039559 -52.66881324 94.11039559 -56 93 C-48.57806746 86.53682775 -41.12766911 80.13941119 -33.30834961 74.15820312 C-30.26907174 71.82642654 -27.34883689 69.44396561 -24.5234375 66.85546875 C-15.34553276 58.62452075 -6.62582312 55.34992829 5.31591797 52.62792969 C7.9919614 52.0018806 10.6361402 51.30179038 13.28515625 50.5703125 C20.5363529 48.57519754 27.5051241 46.78759713 35 46 C31.77831739 49.38709907 28.24934067 52.26838651 24.5625 55.125 C23.95647949 55.59784424 23.35045898 56.07068848 22.72607422 56.55786133 C16.50764093 61.40237983 10.25847942 66.20737705 4 71 C4.72445312 71.57234375 5.44890625 72.1446875 6.1953125 72.734375 C7.95709109 74.15753876 9.68737315 75.62158496 11.3671875 77.140625 C17.89555775 82.63177755 22.55172111 83.89733245 31.02734375 83.28515625 C33.92273207 83.07732602 36.28944945 83.05653931 39.12890625 83.30859375 C44.07657429 83.62132371 48.75232975 83.79898051 52.81982422 80.54345703 C57.4935684 75.64921608 61.91841375 69.73030455 62.0703125 62.78515625 C61.01234851 59.07137544 59.72698112 56.72698112 57 54 C55.515 53.443125 55.515 53.443125 54 52.875 C48.64461718 50.70114482 44.26618407 46.82840663 40 43 C40 42.67 40 42.34 40 42 C46.6 42 53.2 42 60 42 C61.20737628 44.917826 62.41462831 47.83570352 63.62109375 50.75390625 C65.07633525 54.17970138 66.64690006 57.5332768 68.30078125 60.8671875 C69.5301622 64.61714279 69.65956693 67.48642437 68.0559082 71.16650391 C66.76637348 73.6108723 65.40451652 75.9949139 64 78.375 C63.52304687 79.20644531 63.04609375 80.03789062 62.5546875 80.89453125 C61.38108873 82.9365931 60.19610873 84.97106875 59 87 C59.94875 87.144375 60.8975 87.28875 61.875 87.4375 C65 88 65 88 67 89 C73.10685229 89.50890436 76.12959772 89.0775461 81 85 C82.98239527 83.13875077 82.98239527 83.13875077 84 81 C83.8685966 77.05789794 81.13514207 74.16827534 79 71 C79 70.34 79 69.68 79 69 C81.97 69 84.94 69 88 69 C88 68.34 88 67.68 88 67 C87.12021484 66.62681641 87.12021484 66.62681641 86.22265625 66.24609375 C83.68943667 64.82588804 82.29014647 63.28816254 80.4375 61.0625 C77.96809867 58.11693957 77.96809867 58.11693957 75.28515625 55.37109375 C74 54 74 54 74 52 C73.01 51.67 72.02 51.34 71 51 C70.3671875 48.375 70.3671875 48.375 69.875 45 C68.14550472 37.30962292 65.69901386 33.25666506 59 29 C48.11064723 23.45809725 35.45842042 17.44688765 23 20 C20.5314772 20.83164137 18.34744894 21.85124839 16 23 C12.39735734 22.6227212 10.26164628 20.86647318 7.5 18.625 C6.37078125 17.71621094 6.37078125 17.71621094 5.21875 16.7890625 C3.7800562 15.62898898 2.34734697 14.46143857 0.921875 13.28515625 C-1.74696656 11.50050407 -3.86619445 11.78633144 -7 12 C-6.85336531 19.13177794 -5.96821403 24.10783151 -1.86328125 30.02734375 C-1 32 -1 32 -1.5859375 34.12890625 C-3.31952798 36.42280084 -4.647922 36.95335725 -7.3125 38 C-13.53670752 40.90582599 -17.87613748 45.24943572 -22.76953125 49.9453125 C-25.60412476 52.66281582 -28.55979031 55.1675851 -31.625 57.625 C-36.3381045 61.40914477 -40.78537758 65.41802746 -45.2265625 69.515625 C-48.85855362 72.76907057 -52.65212329 75.7936009 -56.4921875 78.796875 C-63.34232834 84.81475574 -66.28777937 91.46404911 -69.875 99.75 C-70.43047086 101.01334684 -70.98688865 102.2762777 -71.54418945 103.53881836 C-72.73582798 106.2428024 -73.92161975 108.94924542 -75.10302734 111.65771484 C-77.43517056 117.00210183 -79.79053718 122.3361911 -82.14575195 127.67044067 C-83.81674764 131.45511452 -85.48617407 135.24044516 -87.14990234 139.02832031 C-87.6135041 140.08257454 -87.6135041 140.08257454 -88.08647156 141.15812683 C-88.66458666 142.47297385 -89.24195893 143.78814783 -89.81843567 145.10371399 C-90.53810444 146.73913889 -91.26853266 148.36981803 -92 150 C-92.39433228 151.12172607 -92.39433228 151.12172607 -92.79663086 152.26611328 C-94.70790583 155.01999335 -97.14802606 155.48649298 -100.2734375 156.55078125 C-101.22118546 156.88056473 -101.22118546 156.88056473 -102.18807983 157.2170105 C-104.24587881 157.92948627 -106.31002637 158.62112547 -108.375 159.3125 C-109.78724617 159.79658629 -111.19902957 160.28202473 -112.61035156 160.76879883 C-115.42317101 161.73716143 -118.23836324 162.69807822 -121.05566406 163.65332031 C-124.51450291 164.82921288 -127.95898909 166.04181067 -131.3984375 167.2734375 C-132.31705566 167.60174561 -133.23567383 167.93005371 -134.18212891 168.26831055 C-135.85433908 168.8668912 -137.52592287 169.46722554 -139.19677734 170.06958008 C-142.25652592 171.15026152 -144.72915056 172 -148 172 C-141.69486213 183.09088105 -135.35148602 194.15916743 -128.9375 205.1875 C-128.06605347 206.69280273 -128.06605347 206.69280273 -127.17700195 208.22851562 C-124.42104915 212.96334806 -121.61832667 217.64416994 -118.6328125 222.23828125 C-118.11340088 223.04692627 -117.59398926 223.85557129 -117.05883789 224.6887207 C-116.0950279 226.17744467 -115.11362711 227.65499954 -114.11108398 229.11791992 C-111.86772001 232.59570518 -110.65820774 234.95426801 -111.125 239.14453125 C-111.41375 240.41683594 -111.7025 241.68914062 -112 243 C-112.30744141 244.49080078 -112.30744141 244.49080078 -112.62109375 246.01171875 C-113.02521484 247.33623047 -113.02521484 247.33623047 -113.4375 248.6875 C-113.68371094 249.57824219 -113.92992187 250.46898437 -114.18359375 251.38671875 C-119.81161698 259.48381023 -134.83861268 262.64675123 -143.8125 266.1875 C-145.41096861 266.82185928 -147.00927713 267.45662213 -148.60742188 268.09179688 C-151.53002705 269.25273516 -154.45350776 270.41140234 -157.37817383 271.56713867 C-159.53375948 272.41992817 -161.6817072 273.29316666 -163.8112793 274.20898438 C-166.87360867 275.31572695 -168.84522385 274.73070183 -172 274 C-173.258125 273.72542969 -174.51625 273.45085937 -175.8125 273.16796875 C-177.20903213 272.84414485 -178.60484291 272.51719773 -180 272.1875 C-180.73532959 272.01444336 -181.47065918 271.84138672 -182.22827148 271.66308594 C-189.21723383 269.99277736 -196.11309236 268.05188374 -203 266 C-203 260.80637657 -199.2903972 257.48690782 -195.93432617 253.83886719 C-190.52729687 248.87294961 -186.16435926 248.33401531 -178.95898438 248.5300293 C-176.52106821 248.67709427 -174.08355208 248.83094229 -171.64648438 248.99145508 C-159.58138611 249.58904942 -151.75956719 245.73073599 -142 239 C-142 235.60513476 -144.70112829 233.30685928 -146.75 230.75 C-147.24153564 230.1302832 -147.73307129 229.51056641 -148.23950195 228.87207031 C-152.2868988 223.80627145 -156.48145853 218.87532969 -160.7253418 213.97387695 C-164.24075491 209.90962719 -167.6228499 205.76085849 -170.953125 201.54296875 C-173.35094119 198.56400245 -175.82834033 195.65677425 -178.3125 192.75 C-182.63082571 187.69015116 -186.76938825 182.51473678 -190.85009766 177.26220703 C-195.71996615 171.02197612 -200.84368383 165.00406641 -206 159 C-204.62828214 155.88191755 -203.09368553 153.90145271 -200.5859375 151.609375 C-199.91111328 150.98611328 -199.23628906 150.36285156 -198.54101562 149.72070312 C-197.82623047 149.07037109 -197.11144531 148.42003906 -196.375 147.75 C-194.91311839 146.40206487 -193.45216955 145.05311737 -191.9921875 143.703125 C-191.29577148 143.06052734 -190.59935547 142.41792969 -189.88183594 141.75585938 C-187.70115213 139.72115804 -185.58780038 137.62972408 -183.5 135.5 C-181.1284502 133.08702575 -178.69313609 130.82770961 -176.125 128.625 C-172.02261531 125.1017755 -168.26428336 121.28184285 -164.46875 117.43359375 C-161.62573404 114.63106378 -158.65835235 112.02858485 -155.59375 109.47265625 C-153.759259 107.89310003 -153.759259 107.89310003 -152 105 C-152.58523438 105.49886719 -153.17046875 105.99773437 -153.7734375 106.51171875 C-161.75334019 113.18560133 -170.13270809 119.20930944 -178.58544922 125.26318359 C-184.97477525 129.85910527 -191.30393477 134.53717154 -197.62011719 139.23291016 C-199.24080499 140.43628914 -200.86395497 141.63635758 -202.48925781 142.83349609 C-204.8959982 144.60854981 -207.29281475 146.39622989 -209.6875 148.1875 C-210.42492432 148.72826172 -211.16234863 149.26902344 -211.92211914 149.82617188 C-212.59106201 150.33083984 -213.26000488 150.83550781 -213.94921875 151.35546875 C-214.54049561 151.79528076 -215.13177246 152.23509277 -215.7409668 152.68823242 C-217.34622818 154.05769437 -217.34622818 154.05769437 -217 157 C-215.20884802 159.5303816 -215.20884802 159.5303816 -212.875 162.1875 C-209.08776215 166.68671463 -205.46891379 171.25234936 -202 176 C-209.28414974 178.25609844 -218.14992458 174.69911723 -225 172 C-229.88991293 169.39567043 -233.91793774 165.69136146 -238 162 C-239.13470069 161.01958168 -240.27281658 160.04310409 -241.4140625 159.0703125 C-243.17191481 157.5717434 -244.92740229 156.07126442 -246.671875 154.55712891 C-252.07660211 149.87192124 -257.68020963 145.46352309 -263.33203125 141.08203125 C-266 139 -266 139 -267 138 C-267.11179211 136.59488615 -267.15669601 135.18435514 -267.17358398 133.77490234 C-267.18707382 132.87661713 -267.20056366 131.97833191 -267.21446228 131.05282593 C-267.23011986 129.58421616 -267.23011986 129.58421616 -267.24609375 128.0859375 C-267.27905187 126.02473565 -267.31226316 123.96353784 -267.34570312 121.90234375 C-267.39299663 118.64374777 -267.437377 115.38516579 -267.47680664 112.12646484 C-267.51669109 108.98777347 -267.56821888 105.84943322 -267.62109375 102.7109375 C-267.63371498 101.26054581 -267.63371498 101.26054581 -267.64659119 99.78085327 C-267.64819158 90.8917968 -267.64819158 90.8917968 -271.57788086 83.21826172 C-272.20057861 82.79303223 -272.82327637 82.36780273 -273.46484375 81.9296875 C-274.17310303 81.43235107 -274.8813623 80.93501465 -275.61108398 80.42260742 C-276.37880127 79.91189697 -277.14651855 79.40118652 -277.9375 78.875 C-278.73293213 78.32368408 -279.52836426 77.77236816 -280.34790039 77.2043457 C-282.88641964 75.45099694 -285.44201993 73.72480114 -288 72 C-289.67813005 70.85178872 -291.35522655 69.70206532 -293.03125 68.55078125 C-296.23969225 66.34917632 -299.45391378 64.1564109 -302.671875 61.96875 C-307.86481363 58.42501235 -312.95542327 54.7522582 -318 51 C-318 53.11774881 -315.74443867 54.38844211 -314.33398438 55.80273438 C-313.83189453 56.30095703 -313.32980469 56.79917969 -312.8125 57.3125 C-312.32974609 57.79912109 -311.84699219 58.28574219 -311.34960938 58.78710938 C-309.02386167 61.10661346 -306.73598549 63.20566478 -304.13671875 65.23046875 C-303.43160156 65.81441406 -302.72648437 66.39835937 -302 67 C-302 67.66 -302 68.32 -302 69 C-301.42040527 69.25289795 -300.84081055 69.5057959 -300.24365234 69.76635742 C-297.73519066 71.14560192 -296.09791421 72.69045686 -294.1015625 74.73828125 C-293.37453125 75.47626953 -292.6475 76.21425781 -291.8984375 76.97460938 C-291.14820313 77.74611328 -290.39796875 78.51761719 -289.625 79.3125 C-288.14046982 80.83182385 -286.65353823 82.34880548 -285.1640625 83.86328125 C-284.18107178 84.87322144 -284.18107178 84.87322144 -283.17822266 85.90356445 C-280.95717106 88.1644871 -280.95717106 88.1644871 -277.80273438 90.13647461 C-275.0961271 92.38117554 -274.51466764 94.04625353 -274.12841797 97.52050781 C-274.04839925 99.33018124 -274.0052337 101.14173031 -273.9921875 102.953125 C-273.9722171 103.92674988 -273.9522467 104.90037476 -273.93167114 105.90350342 C-273.90132163 107.9677233 -273.8872192 110.03223693 -273.88818359 112.09667969 C-273.87519869 115.20247617 -273.76675575 118.29495006 -273.65234375 121.3984375 C-273.41392606 135.42171997 -276.35019737 143.7417304 -285.54284668 154.30926514 C-287.43243155 156.50175029 -289.1044558 158.82326399 -290.77734375 161.18359375 C-291.82916518 162.60272302 -292.88251935 164.02071772 -293.9375 165.4375 C-300.141664 173.81583912 -306.26131034 182.25201333 -312.3515625 190.71337891 C-314.08480281 193.11763375 -315.82305652 195.51819849 -317.5625 197.91796875 C-318.14829834 198.7267749 -318.73409668 199.53558105 -319.33764648 200.36889648 C-320.45354285 201.90935469 -321.57019193 203.44926803 -322.68774414 204.98852539 C-328.21039572 211.50897156 -328.21039572 211.50897156 -331 219 C-330.31188232 219.34144043 -329.62376465 219.68288086 -328.91479492 220.03466797 C-304.83841428 231.99373215 -304.83841428 231.99373215 -293.79150391 237.89672852 C-289.17898219 240.3528547 -284.53912085 242.7467036 -279.87138367 245.09579468 C-276.85586159 246.61376114 -273.8446542 248.14020209 -270.83328247 249.66638184 C-269.33009443 250.42507675 -267.82480259 251.179619 -266.31735229 251.92980957 C-264.18649271 252.99075811 -262.06349607 254.06617233 -259.94140625 255.14453125 C-259.30055084 255.45882584 -258.65969543 255.77312042 -257.99942017 256.09693909 C-251.51949224 259.42535917 -248.75867918 263.98707419 -245.75 270.4375 C-245.22921875 271.52933594 -244.7084375 272.62117188 -244.171875 273.74609375 C-242.96225586 277.10480288 -242.90758608 279.47132839 -243 283 C-247.27009571 283.10506521 -251.53427421 283.14315172 -255.80517578 283.12207031 C-257.25420378 283.1240045 -258.70332789 283.14351283 -260.15185547 283.18164062 C-272.14129004 283.4791042 -272.14129004 283.4791042 -276.5390625 279.97949219 C-278.57658667 277.4119364 -280.3101006 274.80690839 -282 272 C-287.27081537 264.0509786 -294.21337654 261.2609705 -302.83239746 258.01281738 C-305.235606 257.10686519 -307.62674642 256.17397296 -310.01660156 255.23339844 C-313.47493522 253.87416733 -316.93696657 252.52504682 -320.40185547 251.18261719 C-329.39243223 247.68886045 -338.33735361 244.08187452 -347.27432251 240.45355225 C-350.22598988 239.25971121 -353.18335565 238.08087443 -356.14135742 236.90283203 C-357.95389333 236.17028891 -359.76616304 235.43708665 -361.578125 234.703125 C-362.41803482 234.37249054 -363.25794464 234.04185608 -364.12330627 233.70120239 C-366.1184711 232.88430588 -368.06568219 231.95205946 -370 231 C-371.38425905 226.84722284 -369.66479135 224.51987085 -367.84375 220.796875 C-367.50380005 220.08202942 -367.1638501 219.36718384 -366.81359863 218.63067627 C-365.71825084 216.33259243 -364.60949365 214.04128271 -363.5 211.75 C-362.78293748 210.25304293 -362.06678202 208.755651 -361.3515625 207.2578125 C-360.82307961 206.15305824 -360.82307961 206.15305824 -360.28392029 205.02598572 C-359.57180932 203.53573181 -358.86109259 202.04481089 -358.15174866 200.55323792 C-356.46182093 197.0086329 -354.74574659 193.48653192 -352.93920898 189.99975586 C-348.86536834 181.99868784 -346.96480856 175.14780397 -347.0625 166.0625 C-347.03833008 164.44698242 -347.03833008 164.44698242 -347.01367188 162.79882812 C-346.97899231 160.19786102 -346.974472 157.60094799 -347 155 C-347.82242187 154.76539063 -348.64484375 154.53078125 -349.4921875 154.2890625 C-353.692162 152.74564203 -357.29263247 150.66168456 -361.125 148.375 C-362.7987857 147.38944633 -364.4733145 146.40515399 -366.1484375 145.421875 C-367.06850586 144.88111328 -367.98857422 144.34035156 -368.93652344 143.78320312 C-372.35297846 141.79453661 -375.78704393 139.83902313 -379.2265625 137.890625 C-379.84769928 137.53823761 -380.46883606 137.18585022 -381.10879517 136.82278442 C-383.60076065 135.40915113 -386.09271511 133.9955506 -388.58843994 132.58856201 C-390.34741407 131.59642556 -392.10343498 130.59905905 -393.859375 129.6015625 C-394.87483398 129.02744629 -395.89029297 128.45333008 -396.93652344 127.86181641 C-397.9474707 127.24741699 -398.95841797 126.63301758 -400 126 C-400.59881485 125.65083023 -401.1976297 125.30166046 -401.81459045 124.94190979 C-406.80817427 121.77720611 -408.62258342 118.58294311 -410.52734375 113.07421875 C-410.8059877 112.32662796 -411.08463165 111.57903717 -411.37171936 110.80879211 C-412.24832289 108.44222712 -413.09317102 106.06574552 -413.9375 103.6875 C-414.52983153 102.07150556 -415.12421332 100.45626106 -415.72070312 98.84179688 C-417.17098423 94.90280543 -418.59291894 90.95461831 -420 87 C-420.71285156 87.45528076 -421.42570313 87.91056152 -422.16015625 88.37963867 C-430.94622272 93.98252982 -430.94622272 93.98252982 -434.625 96.23828125 C-444.57365237 102.35255719 -454.27835023 108.81454391 -463.98046875 115.30908203 C-472.2704062 120.85712653 -480.57140879 126.38992068 -489.00927734 131.71166992 C-490.43701536 132.6356549 -491.84137561 133.59615102 -493.22900391 134.5793457 C-501.96414613 140.56609745 -511.54297655 144.06303102 -521.375 147.8125 C-523.11370352 148.48523778 -524.85198827 149.15905892 -526.58984375 149.83398438 C-530.44394905 151.32897614 -534.3018963 152.81347933 -538.16390991 154.28791809 C-539.73805786 154.89841225 -541.3001103 155.53993652 -542.859375 156.1875 C-550.03577296 158.91138828 -559.63464392 156.97867606 -567.25 156.625 C-567.96236816 156.5943042 -568.67473633 156.5636084 -569.40869141 156.53198242 C-571.94339049 156.39806647 -574.46937569 156.19675551 -577 156 C-578.25216309 155.93699707 -579.50432617 155.87399414 -580.79443359 155.80908203 C-592.41184079 155.0243131 -601.03818846 151.22158336 -611.125 145.625 C-612.57679105 144.84646568 -614.0299155 144.07041265 -615.484375 143.296875 C-618.74424213 141.55418574 -621.99507577 139.79794751 -625.21781921 137.98736572 C-626.4472668 137.30622585 -627.6890539 136.6470537 -628.9400177 136.00628662 C-631.60834397 134.60001267 -633.66449739 133.5094331 -635.34545898 130.95703125 C-635.56016846 130.24933594 -635.77487793 129.54164063 -635.99609375 128.8125 C-636.24423828 128.03132812 -636.49238281 127.25015625 -636.74804688 126.4453125 C-636.97556641 125.63835937 -637.20308594 124.83140625 -637.4375 124 C-637.69208984 123.19304687 -637.94667969 122.38609375 -638.20898438 121.5546875 C-639.36090117 117.79155231 -640 114.99397514 -640 111 C-637.8181108 110.29489572 -635.62914307 109.61167592 -633.4375 108.9375 C-632.21933594 108.55464844 -631.00117187 108.17179687 -629.74609375 107.77734375 C-622.98108755 106.37355206 -617.64788303 108.29463586 -611.5546875 111.16796875 C-610.86295441 111.48526443 -610.17122131 111.80256012 -609.45852661 112.12947083 C-607.25998186 113.1403239 -605.06749794 114.1636083 -602.875 115.1875 C-601.42746889 115.85565364 -599.97955473 116.52297806 -598.53125 117.18945312 C-595.021262 118.80691168 -591.51596503 120.43424058 -588.01208496 122.06488037 C-584.82603803 123.54560066 -581.63563261 125.01679042 -578.4453125 126.48828125 C-577.39102051 126.97466064 -576.33672852 127.46104004 -575.25048828 127.9621582 C-574.50782715 128.304646 -573.76516602 128.64713379 -573 129 C-573.77974566 132.6544303 -575.02224894 134.47881703 -577.5625 137.25 C-578.20316406 137.95640625 -578.84382813 138.6628125 -579.50390625 139.390625 C-580.24447266 140.18726563 -580.24447266 140.18726563 -581 141 C-580.48203857 140.74831055 -579.96407715 140.49662109 -579.43041992 140.23730469 C-566.47160017 133.96138754 -553.81854077 128.7619596 -540 124.6875 C-538.59935303 124.2685144 -538.59935303 124.2685144 -537.17041016 123.84106445 C-536.2891748 123.58800537 -535.40793945 123.33494629 -534.5 123.07421875 C-533.7059375 122.84307373 -532.911875 122.61192871 -532.09375 122.3737793 C-530 122 -530 122 -527 123 C-532.61 128.61 -538.22 134.22 -544 140 C-537.13261868 135.43866531 -537.13261868 135.43866531 -530.34375 130.7734375 C-529.55830811 130.22316895 -528.77286621 129.67290039 -527.96362305 129.10595703 C-527.15062744 128.53474121 -526.33763184 127.96352539 -525.5 127.375 C-524.62835205 126.76382324 -523.7567041 126.15264648 -522.85864258 125.52294922 C-517.46003447 121.73522799 -512.07178127 117.9330437 -506.6875 114.125 C-499.93325396 109.35120059 -493.15958098 104.60558452 -486.375 99.875 C-485.46967529 99.24223145 -484.56435059 98.60946289 -483.6315918 97.95751953 C-477.86263067 93.94114767 -472.042458 90.0099912 -466.18687439 86.12176514 C-461.67798709 83.12566622 -457.18741245 80.10361335 -452.70477295 77.06838989 C-449.18478503 74.6868205 -445.65888498 72.31407997 -442.13256836 69.94189453 C-440.34612914 68.73755712 -438.56191695 67.5299092 -436.7800293 66.31884766 C-424.35942277 57.88277079 -411.71270493 50.30131976 -398.43251038 43.29541016 C-394.63297013 41.2720013 -390.87907707 39.16868743 -387.125 37.0625 C-378.92443294 32.48848138 -370.67207779 28.01238299 -362.40869141 23.55297852 C-361.44753418 23.03405029 -360.48637695 22.51512207 -359.49609375 21.98046875 C-358.5613623 21.48208496 -357.62663086 20.98370117 -356.66357422 20.47021484 C-354.96013263 19.52996505 -353.2806258 18.54405442 -351.63720703 17.50244141 C-347.8027317 15.11062332 -344.97605152 13.71805708 -340.39892578 13.82910156 C-339.52142166 13.84842239 -338.64391754 13.86774323 -337.73982239 13.88764954 C-333.22393402 14.07283021 -328.71660635 14.31895882 -324.20703125 14.62109375 C-323.21676437 14.68531021 -322.2264975 14.74952667 -321.20622253 14.81568909 C-319.12964703 14.9511502 -317.0531752 15.08820956 -314.97680664 15.22680664 C-311.81098675 15.43760076 -308.6447991 15.642004 -305.47851562 15.84570312 C-303.45049586 15.97878664 -301.42250016 16.11223752 -299.39453125 16.24609375 C-297.98648979 16.33678383 -297.98648979 16.33678383 -296.55000305 16.42930603 C-291.65547375 16.75988885 -286.85561205 17.27892933 -282 18 C-280.46518721 18.09998881 -278.9282367 18.17354355 -277.390625 18.2109375 C-253.47567657 18.96585208 -230.9892659 23.99078709 -208.08203125 30.70068359 C-201.46915693 32.62413982 -194.8165355 34.3112315 -188.125 35.9375 C-176.27025184 38.82736715 -164.6311938 42.32094575 -153 46 C-157.31739516 50.79016777 -162.32205954 54.00488972 -167.75 57.4375 C-169.47428769 58.53984958 -171.19824804 59.64271134 -172.921875 60.74609375 C-173.76041016 61.28089355 -174.59894531 61.81569336 -175.46289062 62.36669922 C-179.34072832 64.86311321 -183.17324359 67.42617522 -187 70 C-186.17725586 69.61368408 -185.35451172 69.22736816 -184.50683594 68.8293457 C-158.51644552 56.62856151 -158.51644552 56.62856151 -147.16796875 51.35546875 C-146.55619781 51.07119019 -145.94442688 50.78691162 -145.31411743 50.49401855 C-142.35560856 49.12014375 -139.39546801 47.74990692 -136.43359375 46.38330078 C-131.66647306 44.18197194 -126.90839216 41.97573959 -122.20703125 39.63671875 C-121.17751343 39.13108398 -121.17751343 39.13108398 -120.12719727 38.61523438 C-118.43807802 37.78045051 -116.75752126 36.92839443 -115.078125 36.07421875 C-107.18980022 33.32131353 -99.34885851 35.81270292 -91.50976562 37.66601562 C-90.67251953 37.84970703 -89.83527344 38.03339844 -88.97265625 38.22265625 C-88.23281494 38.39547119 -87.49297363 38.56828613 -86.73071289 38.74633789 C-79.04952012 39.4598613 -72.47188139 37.36830452 -65.43359375 34.5078125 C-64.55526382 34.16120575 -63.6769339 33.814599 -62.77198792 33.45748901 C-59.98961099 32.35694139 -57.21354559 31.24140849 -54.4375 30.125 C-52.57137196 29.38308648 -50.70483847 28.64219192 -48.83789062 27.90234375 C-46.19934117 26.85636752 -43.56144435 25.80902059 -40.92662048 24.75369263 C-39.36241674 24.12722269 -37.79667615 23.50457251 -36.22921753 22.8862915 C-34.73883128 22.29374427 -33.25428483 21.68630009 -31.77590942 21.06439209 C-25.73791246 18.60480613 -25.73791246 18.60480613 -22 20 C-20.734375 21.84765625 -20.734375 21.84765625 -19.75 24.0625 C-19.41484375 24.79597656 -19.0796875 25.52945312 -18.734375 26.28515625 C-18.49203125 26.85105469 -18.2496875 27.41695313 -18 28 C-18.02320313 26.91460937 -18.04640625 25.82921875 -18.0703125 24.7109375 C-18.0890827 23.26563193 -18.10728156 21.82031885 -18.125 20.375 C-18.14175781 19.66214844 -18.15851562 18.94929688 -18.17578125 18.21484375 C-18.21661172 13.76432291 -17.84713986 10.13907595 -16 6 C-11.19656927 2.15725542 -6.26640968 -0.68698417 0 0 Z " fill="#F0F6FC"/>
  </g>
</svg>
