<svg xmlns="http://www.w3.org/2000/svg" width="1024" height="1024" viewBox="0 0 1024 1024">
  <!-- Background -->
  <rect width="1024" height="1024" fill="#FEFEFE"/>
  
  <!-- Cheetah angular geometric shapes -->
  <path d="M0 0 C337.92 0 675.84 0 1024 0 C1024 337.92 1024 675.84 1024 1024 C686.08 1024 348.16 1024 0 1024 C0 686.08 0 348.16 0 0 Z" fill="#FEFEFE"/>
  
  <!-- Main cheetah body silhouette -->
  <path d="M100 400 C150 350 200 300 280 280 C350 260 420 280 480 320 C540 360 580 420 600 500 C620 580 600 660 560 720 C520 780 460 820 400 840 C340 860 280 850 230 820 C180 790 140 740 120 680 C100 620 100 560 120 500 C140 440 100 400 100 400 Z" fill="#20272D"/>
  
  <!-- Head -->
  <path d="M600 300 C620 280 660 260 700 270 C740 280 770 320 780 370 C790 420 770 470 740 500 C710 530 660 540 620 530 C580 520 560 490 560 450 C560 410 580 380 600 300 Z" fill="#20272D"/>
  
  <!-- Front legs -->
  <path d="M280 620 L260 720 L280 820 L320 820 L340 720 L340 620 Z" fill="#2B3235"/>
  <path d="M380 600 L360 700 L380 800 L420 800 L440 700 L440 600 Z" fill="#2B3235"/>
  
  <!-- Back legs -->
  <path d="M140 680 L120 780 L100 860 L140 860 L180 780 L200 680 Z" fill="#2B3235"/>
  <path d="M200 660 L180 760 L160 840 L200 840 L240 760 L260 660 Z" fill="#2B3235"/>
  
  <!-- Spots -->
  <circle cx="500" cy="400" r="15" fill="#FEFEFE"/>
  <circle cx="540" cy="450" r="12" fill="#FEFEFE"/>
  <circle cx="480" cy="480" r="10" fill="#FEFEFE"/>
  <circle cx="560" cy="380" r="8" fill="#FEFEFE"/>
  <circle cx="400" cy="520" r="14" fill="#FEFEFE"/>
  <circle cx="440" cy="580" r="11" fill="#FEFEFE"/>
  <circle cx="360" cy="620" r="9" fill="#FEFEFE"/>
  <circle cx="300" cy="680" r="10" fill="#FEFEFE"/>
  <circle cx="240" cy="720" r="8" fill="#FEFEFE"/>
  <circle cx="180" cy="760" r="7" fill="#FEFEFE"/>
  
  <!-- Speed lines -->
  <path d="M40 400 L200 400" stroke="#3A3F42" stroke-width="4"/>
  <path d="M60 450 L180 450" stroke="#3A3F42" stroke-width="3"/>
  <path d="M50 500 L160 500" stroke="#3A3F42" stroke-width="3"/>
  <path d="M70 550 L190 550" stroke="#3A3F42" stroke-width="2"/>
</svg>